<?xml version="1.0" encoding="UTF-8"?>
<!DOCTYPE svg PUBLIC "-//W3C//DTD SVG 1.0//EN" "http://www.w3.org/TR/2001/REC-SVG-20010904/DTD/svg10.dtd">
<!-- Creator: CorelDRAW X7 -->
<svg xmlns="http://www.w3.org/2000/svg" xml:space="preserve" width="64.9214mm" height="58.2836mm" version="1.0" shape-rendering="geometricPrecision" text-rendering="geometricPrecision" image-rendering="optimizeQuality" fill-rule="evenodd" clip-rule="evenodd"
viewBox="0 0 2533 2274"
 xmlns:xlink="http://www.w3.org/1999/xlink">
 <g id="Plan_x0020_1">
  <metadata id="CorelCorpID_0Corel-Layer"/>
  <path fill="white" stroke="black" stroke-width="29.2616" d="M1955 1530c6,11 14,31 31,24 9,-4 16,-2 16,9 0,6 -33,32 -10,39 17,5 35,-29 49,-29 2,8 20,9 25,11l1 0c0,6 -5,12 -5,19 0,4 15,9 18,12 8,6 -4,16 10,19 1,0 1,0 2,0 0,1 0,1 1,1 1,5 1,6 0,11l-4 24 0 0 -23 -7c-14,0 -22,7 -31,15 -14,12 -25,10 -41,10 -20,0 -44,-29 -56,7 -11,33 -17,11 -17,-7l-2 0c-2,7 -38,17 -46,34 -4,11 -44,49 -55,49 -20,0 -20,6 -2,14 4,1 46,19 37,21 0,6 -13,13 -15,19 -2,7 4,18 6,24 7,18 17,46 32,58 8,7 -17,9 -23,10 -11,2 -43,19 -50,16 -11,-3 -20,-4 -32,-5 -16,0 -37,11 -51,5l-43 -19c-49,-21 -40,20 -51,53 -6,17 -29,19 -42,30 -4,0 -6,-1 -9,-1 -8,-11 -8,-22 -12,-34 -6,-14 -20,-10 -32,-15 -10,-4 -16,-9 -25,-14l0 0 -27 25c-3,7 -10,12 -14,19 -3,6 -4,12 -9,16 0,3 -2,7 -3,10 -1,4 -1,8 -1,12 0,6 1,12 1,18 3,3 3,11 4,15 2,5 5,11 6,17 1,5 1,7 4,13l9 46 0 0c-6,-4 -27,23 -38,26l-1 1c0,9 37,32 19,44 -10,6 -37,-3 -36,13 1,11 8,18 2,31 -13,24 -20,23 -42,12 -7,-4 -13,0 -20,2 -12,5 -16,1 -27,-2 -12,-5 -21,4 -32,7 -11,2 -22,1 -33,1 0,-6 4,-13 4,-20l0 -48c0,-13 11,-19 13,-31 0,-9 -1,-13 -4,-21 -2,-7 -4,-35 -5,-36 -5,-2 -22,-2 -29,-3 -2,-14 37,-97 -11,-52 -5,4 -21,5 -21,10 0,13 -12,39 -20,48 -13,14 -16,16 -35,9 -6,-3 -41,-8 -37,-11l21 -18c7,-5 35,-20 34,-30 -1,-15 -10,-13 -2,-31 13,-23 37,-40 24,-71 -7,-16 -26,-34 -39,-45 -34,-32 25,-61 -8,-97 -21,-22 -34,-33 -43,-63 -3,-11 -28,21 -39,27 -20,9 -22,57 -44,59 -15,0 -23,-66 -34,-81l-1 0c-18,19 -45,11 -38,40 10,37 -43,57 -57,26 -5,-9 -38,-15 -19,-26 13,-7 27,-23 13,-37 -5,-12 14,-15 17,-30 3,-12 -11,-16 -14,-24 -2,-8 20,-20 20,-37 0,-10 -5,-19 -5,-29 0,-9 5,-17 3,-26 -3,0 -30,0 -35,3 -2,3 -6,8 -14,12 -3,1 -3,5 -5,5 -3,1 -12,6 -14,7 -8,0 -16,1 -24,1 -6,0 -11,-1 -17,-1 -25,0 -17,26 -7,38 6,8 11,16 14,26 5,18 -10,14 -22,9 -14,-6 -20,-43 -24,-43 -8,-1 -11,0 -16,5 -6,6 -15,12 -17,6 -5,-17 -3,-44 -18,-54 -1,-1 -6,-5 -7,-6 -2,0 -16,3 -17,6 -3,6 -12,24 -17,30 -4,4 -16,4 -25,4 -14,0 -17,-33 -34,-36 -6,-1 -26,26 -30,29 -32,25 -29,1 -38,0 -13,-1 -15,0 -26,6 -4,2 -7,8 -11,10 -2,2 -7,4 -10,1 -3,-3 -6,-4 -11,-3 -2,0 -2,1 -3,2 -2,3 -6,2 -7,3 -1,2 -7,8 -8,9 -2,5 9,26 10,32 1,7 0,11 -3,14 1,4 6,12 16,13 14,1 31,0 45,3l0 1c4,15 -19,17 -21,26 -2,9 3,27 8,34 20,29 29,-43 29,-52 0,-24 21,3 27,9 9,10 26,23 29,38 2,14 -4,38 -16,47 -10,8 -23,11 -6,24 22,17 14,40 -11,51 -19,9 -32,-34 -42,-24 -5,5 -13,29 -21,30 -19,1 -32,-23 -50,-23 -9,0 -33,26 -41,33 -12,18 10,25 3,42 -5,12 -17,17 -28,22 -1,3 -10,19 -12,21l0 1c-4,4 -4,15 -7,20 -6,9 -30,10 -41,17 -18,13 -53,11 -72,0 -8,-5 -15,0 -21,5 -12,8 -20,5 -33,5l-28 -12 0 0 -10 -16c-8,-17 -10,-34 -32,-36 -2,0 -2,-3 -3,-3 0,-10 -2,-20 -2,-30 0,0 1,0 1,0 1,-1 9,-7 11,-10 2,-4 4,-9 6,-14 5,-9 22,-8 25,-14 4,-1 5,-5 6,-8 0,-9 2,-34 -4,-42 -6,-8 -20,-7 -17,-23 6,-31 -13,-37 28,-46 19,-5 24,-4 30,-24 7,-24 9,-41 23,-63 23,-33 -53,-27 -49,-43 3,-15 6,-23 11,-35 23,-4 21,-36 4,-44 -30,-13 -35,45 -48,-1 -8,-18 -10,-38 -5,-55 6,-18 4,-35 4,-53 0,-1 0,-1 0,-2 -13,0 -24,17 -37,15 -11,-2 -18,7 -27,3 0,-12 4,-23 3,-34l-1 -29c-1,-16 1,-56 -7,-68 -11,-17 -19,-7 -6,-29 4,-6 -1,-18 -3,-25 0,-28 0,-127 20,-155 -16,-15 -24,-29 -12,-56 15,-31 -55,-13 -67,-18 -24,-11 1,-34 6,-38 3,-3 6,-9 7,-15 0,-1 4,-5 4,-7l2 -43c1,-6 12,-14 15,-21 8,-18 13,-10 30,-16 13,-4 41,-18 52,-13 33,13 31,-22 54,-15 28,8 40,14 64,33 10,8 7,1 14,-5 7,-5 23,-27 27,-34 12,-23 -5,-32 34,-32 0,-1 1,-2 2,-2 0,-2 2,-3 3,-5 19,-5 36,13 56,16 5,-1 22,-15 27,-8 17,0 27,26 50,13 27,-16 27,11 48,12 18,1 22,-4 34,10 7,8 18,47 23,60 11,28 27,29 55,22 0,-1 1,-2 2,-2 3,-19 83,-3 96,-30 6,-1 15,-25 6,-28 -3,-19 -20,-39 -13,-61 6,-18 34,-28 34,-48 0,0 -1,-1 -1,-2 -11,-3 -23,-3 -35,-7 -11,-1 -7,-26 -6,-35 3,-15 3,-38 2,-54 -1,-11 -10,-19 -10,-29 0,-11 8,-23 8,-35 1,0 1,0 1,0l1 0c1,6 8,20 13,23 8,4 21,1 28,0 7,0 6,1 8,9 4,14 4,16 17,12 1,0 0,0 1,-1l0 0c1,0 2,-1 3,-1 1,0 1,-1 2,-2 1,-1 3,-2 5,-3 1,0 2,0 3,-1 1,-1 3,-1 4,-2 3,-2 9,-13 13,-7 1,2 3,4 3,6 2,5 3,8 6,12 3,7 45,1 47,-3 8,-2 6,-17 16,-17l35 2c45,1 -6,-35 -14,-42 -9,-7 11,-21 17,-31 17,-26 31,-17 54,-29 12,-6 11,-20 22,-24l31 -14 12 -28c4,-17 6,-48 1,-64 -7,-20 -23,-24 -13,-49 4,-9 2,-23 7,-32 5,-9 20,-32 18,-42 -1,-8 -8,-18 -9,-24 0,-7 13,-16 16,-22 11,-2 6,-3 20,1 11,3 11,8 22,4 25,-8 24,-8 32,16 3,12 14,13 23,18 5,3 8,10 11,12 1,3 7,4 9,4 11,0 17,7 23,-7 1,-3 8,-21 9,-19 5,0 4,21 9,23 3,1 17,-6 21,-8 9,-4 41,-21 43,-31 7,-2 8,-15 20,-11 4,1 24,1 25,-2l1 0c1,-7 7,-10 7,-18 -1,-10 0,-9 2,-17 35,-5 25,-38 46,-47 32,-13 26,-40 47,-63l0 0c10,-12 15,-40 23,-55 4,-8 20,-43 27,-45 0,0 12,-7 14,-10 13,-15 20,-36 42,-36 5,13 32,63 42,24 22,-3 35,34 40,-2 1,0 1,0 1,-1 6,-1 25,-9 27,-6 -10,16 17,27 24,34 11,10 1,34 8,48 12,14 20,2 33,8 14,6 24,21 41,27 19,5 36,2 55,5 6,10 14,20 18,31 2,7 0,23 1,31 3,2 17,15 17,17 7,4 13,22 15,30 5,22 38,23 48,39 16,23 -46,49 9,63 18,5 30,13 40,-5 13,-24 26,2 30,12 3,26 57,43 50,54 -3,5 -14,18 -1,19 26,2 22,29 44,0 16,-22 14,-9 32,-3 13,4 5,13 1,22 -2,6 12,27 17,28 13,5 32,1 46,1l0 0c1,5 -6,17 -8,22 -5,16 -1,33 8,47 17,27 -13,36 -10,59 0,5 17,18 21,22 8,9 7,21 3,32 -8,6 -11,9 -11,19 4,2 6,12 13,16 9,5 20,21 29,16 7,-3 23,-13 30,-13 7,0 3,26 18,16 8,-5 18,-10 25,1 6,11 29,30 40,36 20,10 12,-13 13,-26 0,-3 1,-12 2,-23l0 0 31 18c0,1 5,9 5,12 2,0 2,1 4,2 0,2 2,1 3,3 3,1 6,7 6,9 11,4 -3,40 -3,44 -8,3 -6,26 -6,33l10 35c10,3 11,5 22,-1 15,-7 21,0 36,1 21,2 20,-2 25,-22 3,0 8,1 8,4 3,1 27,24 27,27 4,1 -12,28 -15,36 -6,16 -10,30 -7,48l6 22 0 0 -10 29c0,2 -1,6 -3,6 -1,2 -1,1 -2,3 -1,0 -1,0 -2,0 -1,2 -1,0 -1,2 -2,0 -5,0 -5,2 -2,0 -3,0 -4,2 -4,1 -11,18 -5,21 1,2 6,10 8,12 2,4 -1,8 -2,11 -2,0 -9,5 -12,7 -5,3 -12,6 -18,8 -10,3 -18,6 -29,2 -5,-1 -7,-5 -12,-6 -3,-1 -12,-2 -14,1l-1 0c-1,3 -4,6 -5,10 -3,7 -5,11 -6,20 -11,0 -25,25 -23,35 6,0 13,-3 19,-3 0,36 -35,25 -21,58 8,19 22,38 -11,39 -33,2 -7,16 -7,29 0,17 -27,42 -39,50 -31,21 5,44 -25,53 0,46 -16,12 -39,12 -2,6 -43,54 -53,60 -37,23 -30,3 -30,-27 -4,0 -8,11 -10,15 -2,5 -8,14 -9,12l-2 0c0,-16 -4,-31 -20,-18 -17,14 -12,-21 -15,-26 -3,-7 -19,7 -23,9 -16,10 -21,3 -39,3l0 0c-1,4 -3,5 -3,8 -13,2 -28,-2 -41,-6 -11,-2 -22,-3 -23,11 0,12 -3,20 -7,31 -2,5 -8,12 -8,17 1,4 7,7 9,8 16,8 6,22 5,33l-9 11 0 0z"/>
 </g>
</svg>
